; OM File Header - Saved 2022/12/02 12:49:56
; (7.01 :patc (om-make-point 38 10) (om-make-point 0 0) (om-make-point 1233 761) "" 183 0 nil "2022/12/02 12:49:12")
; End File Header
; External resources 
; (list (list (quote :sound) "#P\"../../out-files/out.wav\""))
(in-package :om)(load-lib-for (quote ("OM-pd")))(setf *om-current-persistent* (om-load-patch1 "1 - simple-patch" (quote ((let ((box (om-load-boxcomment "comment" (om-make-point 312 120) (quote "You need to install else in order to run this patch. Run the object pd-open-patches, then go to help->find-external and search for else, then download and install it.") "" (om-make-point 26 613) nil (om-make-color 1.0 0.0 0.0) (om-make-font "Liberation Sans" 13.333333333333333D0 :family "Liberation Sans" :style (quote (:plain)) :mode (quote nil))))) (when (fboundp (quote set-active)) (set-active box nil)) box) (let ((box (om-load-boxcall (quote bastype) "aux 6" (quote t) (quote nil) (om-make-point 665 131) (om-make-point 48 34) 2345 "2345" nil))) (when (fboundp (quote set-active)) (set-active box nil)) box) (let ((box (om-load-boxcall (quote genfun) "X-APPEND 2" (quote x-append) (quote ((om-load-inputfun (quote input-funbox) "first element" "L1?" nil) (om-load-inputfun (quote input-funbox) "second element" "L2?" nil))) (om-make-point 626 169) nil nil nil nil 1))) (when (fboundp (quote set-active)) (set-active box nil)) box) (let ((box (om-load-boxcall (quote bastype) "aux 5" (quote t) (quote nil) (om-make-point 626 92) (om-make-point 43 32) (quote time) "time" nil))) (when (fboundp (quote set-active)) (set-active box nil)) box) (let ((box (om-load-boxcall (quote genfun) "PD-OPEN-PATCHES" (quote pd-open-patches) (quote ((om-load-inputfun (quote input-funbox) "Use PD patches inside OM-Sharp" "PATCH" nil))) (om-make-point 57 478) nil nil nil nil 1))) (when (fboundp (quote set-active)) (set-active box nil)) box) (let ((box (om-load-boxcall (quote bastype) "aux 4" (quote t) (quote nil) (om-make-point 484 117) (om-make-point 41 32) 320 "320" nil))) (when (fboundp (quote set-active)) (set-active box nil)) box) (let ((box (om-load-boxcall (quote lispfun) "LIST" (quote list) (quote ((om-load-inputfun (quote input-funbox) "add-input" "add-input" nil) (om-load-inputfun (quote input-funbox) "add-input" "add-input" nil))) (om-make-point 464 278) nil nil nil nil 1))) (when (fboundp (quote set-active)) (set-active box nil)) box) (let ((box (om-load-boxcall (quote bastype) "aux 3" (quote t) (quote nil) (om-make-point 445 78) (om-make-point 44 32) (quote freq) "freq" nil))) (when (fboundp (quote set-active)) (set-active box nil)) box) (let ((box (om-load-boxcall (quote genfun) "X-APPEND" (quote x-append) (quote ((om-load-inputfun (quote input-funbox) "first element" "L1?" nil) (om-load-inputfun (quote input-funbox) "second element" "L2?" nil))) (om-make-point 445 155) nil nil nil nil 1))) (when (fboundp (quote set-active)) (set-active box nil)) box) (let ((box (om-load-boxcall (quote bastype) "aux 2" (quote t) (quote nil) (om-make-point 555 300) (om-make-point 25 32) (quote t) "t" nil))) (when (fboundp (quote set-active)) (set-active box nil)) box) (let ((box (om-load-boxcall (quote bastype) "aux" (quote t) (quote nil) (om-make-point 327 213) (om-make-point 79 32) "out.wav" "\"out.wav\"" nil))) (when (fboundp (quote set-active)) (set-active box nil)) box) (let ((box (om-load-boxcall (quote genfun) "TMPFILE" (quote tmpfile) (quote ((om-load-inputfun (quote input-funbox) "file name" "PATH" ""))) (om-make-point 340 252) nil nil nil nil 1))) (when (fboundp (quote set-active)) (set-active box nil)) box) (let ((box (om-load-editor-box1 "SINGLE-ITEM-LIST" (quote single-item-list) (quote ((om-load-inputfun (quote input-funbox) "list of choices" "items" (list "uno" "dos" "tres")))) (om-make-point 22 146) (om-make-point 178 123) (let ((rep (om-make-dialog-item (quote single-item-list) (om-make-point 1 1) (om-make-point 154 107) "untitled" :range (quote ("Patch Model - Manipulation of Audios.pd" "Patch Model - Generating Audios.pd" "3 - spacialization-of-note.pd" "1 - mk-senoide.pd"))))) (setf (di-data rep) (quote ("Patch Model - Manipulation of Audios.pd" "Patch Model - Generating Audios.pd" "3 - spacialization-of-note.pd" "1 - mk-senoide.pd"))) (om-set-selected-item-index rep 3) rep) "x" nil (pairlis (quote (winsize winpos)) (list (om-make-point 335 275) (om-make-point 10 40))) nil nil nil nil))) (when (fboundp (quote set-active)) (set-active box nil)) box) (let ((box (om-load-boxcall (quote genfun) "PD-PATCHES-LIST" (quote pd-patches-list) (quote nil) (om-make-point 64 73) nil nil nil nil 1))) (when (fboundp (quote set-active)) (set-active box nil)) box) (let ((box (om-load-editor-box1 "out.wav" (quote sound) (quote ((om-load-inputfun (quote input-funbox) "object" "self" nil) (om-load-inputfun (quote input-funbox) "a track index for multichannel mixing (0 = no specific track)" "tracknum" 0) (om-load-inputfun (quote input-funbox) "a list of markers (s)" "markers" nil))) (om-make-point 323 415) (om-make-point 421 192) (let ((newobj (let ((thesound (load-sound (om-make-pathname :directory (quote (:relative "out-files")) :device nil :host nil :name "out" :type "wav") 0 1.0 0))) (when thesound (setf (markers thesound) (quote nil))) thesound))) (load-port-info newobj (quote nil)) (init-mus-color newobj (quote nil)) (set-extra-pairs newobj (quote nil)) (set-patch-pairs newobj (quote nil)) (set-name newobj "out.wav") (set-tonalite newobj nil) newobj) nil nil (pairlis (quote (scale show-stems notechancolor? cmnpref obj-mode deltapict show-spectrum winpos winsize mode grillestep zoom player inport outport)) (list nil (quote t) nil (let ((newobj (make-instance (quote edition-values)))) (setf (paper-size newobj) (om-make-point 600 800)) (setf (top-margin newobj) 2) (setf (left-margin newobj) 1) (setf (right-margin newobj) 1) (setf (bottom-margin newobj) 1) (setf (orientation newobj) nil) (setf (scale newobj) nil) (setf (system-space newobj) (quote (1))) (setf (system-color newobj) (quote nil)) (setf (line-space newobj) 1) (setf (title newobj) nil) (setf (show-title? newobj) nil) (setf (show-page? newobj) nil) (setf (sheet-id newobj) nil) (setf (page-mode newobj) nil) newobj) 0 (om-make-point 0 0) nil (om-make-point 400 20) (om-make-point 370 280) 0 nil 1 (quote :om-audio) nil nil)) t nil nil nil))) (when (fboundp (quote set-active)) (set-active box nil)) box) (let ((box (om-load-boxcall (quote genfun) "PD~" (quote pd~) (quote ((om-load-inputfun (quote input-funbox) "Use PD patches inside OM-Sharp" "PATCH" nil) (om-load-inputkeyword (quote input-keyword) "" "sound-out" (quote :sound-out) nil nil) (om-load-inputkeyword (quote input-keyword) "" "var" (quote :var) nil nil) (om-load-inputkeyword (quote input-keyword) "" "offline" (quote :offline) nil nil))) (om-make-point 205 340) (om-make-point 450 68) nil nil nil 1))) (when (fboundp (quote set-active)) (set-active box nil)) box))) (quote ((3 0 2 0 nil 0) (1 0 2 1 nil 0) (12 0 4 0 nil 0) (8 0 6 0 nil 0) (2 0 6 1 nil 0) (7 0 8 0 nil 0) (5 0 8 1 nil 0) (10 0 11 0 nil 0) (13 0 12 0 nil 0) (15 0 14 0 nil 0) (12 0 15 0 nil 0) (11 0 15 1 nil 0) (6 0 15 2 nil 0) (9 0 15 3 nil 0))) nil 7.01))
