; OM File Header - Saved 2022/10/21 09:56:36
; (7.01 :patc (om-make-point 38 10) (om-make-point 728 55) (om-make-point 1114 887) "" 183 0 nil "2022/10/21 09:56:36")
; End File Header
; External resources 
; (list (list (quote :sound) "#P\"C:../../out-files/out498.wav\""))
(in-package :om)(load-lib-for (quote ("OM-pd")))(setf *om-current-persistent* (om-load-patch1 "multithreading" (quote ((let ((box (om-load-editor-box1 "out498.wav" (quote sound) (quote ((om-load-inputfun (quote input-funbox) "object" "self" nil) (om-load-inputfun (quote input-funbox) "a track index for multichannel mixing (0 = no specific track)" "tracknum" 0) (om-load-inputfun (quote input-funbox) "a list of markers (s)" "markers" nil))) (om-make-point 31 580) (om-make-point 314 109) (let ((newobj (let ((thesound (load-sound (om-make-pathname :directory (quote (:relative "out-files")) :device nil :host "C" :name "out498" :type "wav") 0 1.0 0))) (when thesound (setf (markers thesound) (quote nil))) thesound))) (load-port-info newobj (quote nil)) (init-mus-color newobj (quote nil)) (set-extra-pairs newobj (quote nil)) (set-patch-pairs newobj (quote nil)) (set-name newobj "out498.wav") (set-tonalite newobj nil) newobj) nil nil (pairlis (quote (scale show-stems notechancolor? cmnpref obj-mode deltapict show-spectrum winpos winsize mode grillestep zoom player inport outport)) (list nil (quote t) nil (let ((newobj (make-instance (quote edition-values)))) (setf (paper-size newobj) (om-make-point 600 800)) (setf (top-margin newobj) 2) (setf (left-margin newobj) 1) (setf (right-margin newobj) 1) (setf (bottom-margin newobj) 1) (setf (orientation newobj) nil) (setf (scale newobj) nil) (setf (system-space newobj) (quote (1))) (setf (system-color newobj) (quote nil)) (setf (line-space newobj) 1) (setf (title newobj) nil) (setf (show-title? newobj) nil) (setf (show-page? newobj) nil) (setf (sheet-id newobj) nil) (setf (page-mode newobj) nil) newobj) 0 (om-make-point 0 0) nil (om-make-point 400 20) (om-make-point 370 280) 0 nil 1 (quote :om-audio) nil nil)) t nil nil nil))) (when (fboundp (quote set-active)) (set-active box nil)) box) (let ((box (om-load-boxcall (quote genfun) "NTH-RANDOM" (quote nth-random) (quote ((om-load-inputfun (quote input-funbox) "a list" "LIST" nil))) (om-make-point 178 490) nil nil nil nil 1))) (when (fboundp (quote set-active)) (set-active box nil)) box) (let ((box (om-load-editor-box1 "TEXTFILE" (quote textfile) (quote ((om-load-inputfun (quote input-funbox) "object" "self" nil) (om-load-inputfun (quote input-funbox) "input data or text" "exp-list" nil) (om-load-inputfunmenu1 (quote input-funmenu) "append or supersede" "ed-mode" "supersede" (list (list "append" "append") (list "supersede" "supersede"))) (om-load-inputfunmenu1 (quote input-funmenu) "eval interpretation mode" "eval-mode" "list" (list (list "text" "text") (list "data list" "data") (list "list" "list") (list "value" "value"))))) (om-make-point 388 511) (om-make-point 396 288) (load-buffer-textfile (quote ("C:/USERS/NEIMOG/DOCUMENTS/OM/OM/out-files/out443.wav" "C:/USERS/NEIMOG/DOCUMENTS/OM/OM/out-files/out1169.wav" "C:/USERS/NEIMOG/DOCUMENTS/OM/OM/out-files/out908.wav" "C:/USERS/NEIMOG/DOCUMENTS/OM/OM/out-files/out809.wav" "C:/USERS/NEIMOG/DOCUMENTS/OM/OM/out-files/out902.wav" "C:/USERS/NEIMOG/DOCUMENTS/OM/OM/out-files/out1069.wav" "C:/USERS/NEIMOG/DOCUMENTS/OM/OM/out-files/out474.wav" "C:/USERS/NEIMOG/DOCUMENTS/OM/OM/out-files/out330.wav" "C:/USERS/NEIMOG/DOCUMENTS/OM/OM/out-files/out669.wav" "C:/USERS/NEIMOG/DOCUMENTS/OM/OM/out-files/out807.wav" "C:/USERS/NEIMOG/DOCUMENTS/OM/OM/out-files/out836.wav" "C:/USERS/NEIMOG/DOCUMENTS/OM/OM/out-files/out575.wav" "C:/USERS/NEIMOG/DOCUMENTS/OM/OM/out-files/out513.wav" "C:/USERS/NEIMOG/DOCUMENTS/OM/OM/out-files/out1182.wav" "C:/USERS/NEIMOG/DOCUMENTS/OM/OM/out-files/out477.wav" "C:/USERS/NEIMOG/DOCUMENTS/OM/OM/out-files/out392.wav" "C:/USERS/NEIMOG/DOCUMENTS/OM/OM/out-files/out1074.wav" "C:/USERS/NEIMOG/DOCUMENTS/OM/OM/out-files/out573.wav" "C:/USERS/NEIMOG/DOCUMENTS/OM/OM/out-files/out744.wav" "C:/USERS/NEIMOG/DOCUMENTS/OM/OM/out-files/out1171.wav" "")) (quote textfile) "supersede" "list") "x" nil (pairlis (quote (winpos winsize)) (list (om-make-point 10 40) (om-make-point 335 275))) t nil nil nil))) (when (fboundp (quote set-active)) (set-active box nil)) box) (let ((box (om-load-boxcall (quote genfun) "PD-OPEN-PATCHES" (quote pd-open-patches) (quote ((om-load-inputfun (quote input-funbox) "Use PD patches inside OM-Sharp" "PATCH" nil))) (om-make-point 54 341) nil nil nil nil 1))) (when (fboundp (quote set-active)) (set-active box nil)) box) (let ((box (om-load-boxcall (quote bastype) "aux 4" (quote t) (quote nil) (om-make-point 556 343) (om-make-point 28 32) 4 "4" nil))) (when (fboundp (quote set-active)) (set-active box nil)) box) (let ((box (om-load-boxcall (quote genfun) "PD-MULTITHREADING" (quote pd-multithreading) (quote ((om-load-inputfun (quote input-funbox) "Use PD patches inside OM-Sharp" "PATCH-LIST" nil) (om-load-inputfun (quote input-funbox) "Number of Threads" "PATCHES-BY-THREAD" nil))) (om-make-point 490 404) nil (list (list "C:/USERS/NEIMOG/DOCUMENTS/OM/OM/out-files/out892.wav" "C:/USERS/NEIMOG/DOCUMENTS/OM/OM/out-files/out499.wav" "C:/USERS/NEIMOG/DOCUMENTS/OM/OM/out-files/out1041.wav" "C:/USERS/NEIMOG/DOCUMENTS/OM/OM/out-files/out1077.wav" "C:/USERS/NEIMOG/DOCUMENTS/OM/OM/out-files/out793.wav" "C:/USERS/NEIMOG/DOCUMENTS/OM/OM/out-files/out1086.wav" "C:/USERS/NEIMOG/DOCUMENTS/OM/OM/out-files/out317.wav" "C:/USERS/NEIMOG/DOCUMENTS/OM/OM/out-files/out737.wav" "C:/USERS/NEIMOG/DOCUMENTS/OM/OM/out-files/out669.wav" "C:/USERS/NEIMOG/DOCUMENTS/OM/OM/out-files/out946.wav" "C:/USERS/NEIMOG/DOCUMENTS/OM/OM/out-files/out498.wav" "C:/USERS/NEIMOG/DOCUMENTS/OM/OM/out-files/out493.wav" "C:/USERS/NEIMOG/DOCUMENTS/OM/OM/out-files/out1132.wav" "C:/USERS/NEIMOG/DOCUMENTS/OM/OM/out-files/out1104.wav" "C:/USERS/NEIMOG/DOCUMENTS/OM/OM/out-files/out841.wav" "C:/USERS/NEIMOG/DOCUMENTS/OM/OM/out-files/out796.wav" "C:/USERS/NEIMOG/DOCUMENTS/OM/OM/out-files/out513.wav" "C:/USERS/NEIMOG/DOCUMENTS/OM/OM/out-files/out888.wav" "C:/USERS/NEIMOG/DOCUMENTS/OM/OM/out-files/out842.wav" "C:/USERS/NEIMOG/DOCUMENTS/OM/OM/out-files/out1135.wav")) "x" nil 1))) (when (fboundp (quote set-active)) (set-active box nil)) box) (let ((box (om-load-boxcall (quote bastype) "aux 3" (quote t) (quote nil) (om-make-point 583 206) (om-make-point 36 32) 20 "20" nil))) (when (fboundp (quote set-active)) (set-active box nil)) box) (let ((box (om-load-boxcall (quote bastype) "aux 2" (quote t) (quote nil) (om-make-point 527 106) (om-make-point 43 32) 300 "300" nil))) (when (fboundp (quote set-active)) (set-active box nil)) box) (let ((box (om-load-boxcall (quote bastype) "aux" (quote t) (quote nil) (om-make-point 576 89) (om-make-point 51 32) 1200 "1200" nil))) (when (fboundp (quote set-active)) (set-active box nil)) box) (let ((box (om-load-boxcall (quote genfun) "OM-RANDOM" (quote om-random) (quote ((om-load-inputfun (quote input-funbox) "min" "LOW" 300) (om-load-inputfun (quote input-funbox) "max" "HIGH" 1200))) (om-make-point 526 148) nil nil nil nil 1))) (when (fboundp (quote set-active)) (set-active box nil)) box) (let ((box (om-load-boxcall (quote genfun) "REPEAT-N" (quote repeat-n) (quote ((om-load-inputfun (quote input-funbox) "something" "SELF" 1) (om-load-inputfun (quote input-funbox) "times" "N" 40))) (om-make-point 544 238) nil nil nil nil 1))) (when (fboundp (quote set-active)) (set-active box nil)) box) (let ((box (om-load-boxcall (quote lispfun) "MAPCAR" (quote mapcar) (quote ((om-load-inputfun (quote input-funbox) "FUNCTION" "FUNCTION" nil) (om-load-inputfun (quote input-funbox) "LIST" "LIST" nil))) (om-make-point 461 354) nil nil nil nil 1))) (when (fboundp (quote set-active)) (set-active box nil)) box) (let ((box (om-load-boxcall (quote abstraction) "multithreading" (om-load-patch-abs1 "multithreading" (quote ((let ((box (om-load-boxcall (quote genfun) "PD-MK-LINE" (quote pd-mk-line) (quote ((om-load-inputfun (quote input-funbox) "Use PD patches inside OM-Sharp" "PATCH" nil) (om-load-inputkeyword (quote input-keyword) "" "sound-out" (quote :sound-out) nil nil) (om-load-inputkeyword (quote input-keyword) "" "var" (quote :var) nil nil) (om-load-inputkeyword (quote input-keyword) "" "offline" (quote :offline) nil nil))) (om-make-point 162 330) (om-make-point 373 68) nil nil nil 1))) (when (fboundp (quote set-active)) (set-active box nil)) box) (let ((box (om-load-boxin "input 2" 1 (om-make-point 615 50) "" nil nil nil))) (when (fboundp (quote set-active)) (set-active box nil)) box) (let ((box (om-load-boxin "input" 0 (om-make-point 50 92) "" nil nil nil))) (when (fboundp (quote set-active)) (set-active box nil)) box) (let ((box (om-load-boxout "output" 0 (om-make-point 322 422) (quote ((om-load-inputfun (quote input-funbox) "" "out" nil))) nil nil))) (when (fboundp (quote set-active)) (set-active box nil)) box) (let ((box (om-load-boxcall (quote lispfun) "WRITE-TO-STRING" (quote write-to-string) (quote ((om-load-inputfun (quote input-funbox) "OBJECT" "OBJECT" nil))) (om-make-point 409 64) nil nil nil nil 1))) (when (fboundp (quote set-active)) (set-active box nil)) box) (let ((box (om-load-boxcall (quote bastype) "aux 5" (quote t) (quote nil) (om-make-point 327 66) (om-make-point 59 32) ".wav" "\".wav\"" nil))) (when (fboundp (quote set-active)) (set-active box nil)) box) (let ((box (om-load-boxcall (quote bastype) "aux" (quote t) (quote nil) (om-make-point 266 66) (om-make-point 51 32) "out" "\"out\"" nil))) (when (fboundp (quote set-active)) (set-active box nil)) box) (let ((box (om-load-boxcall (quote lispfun) "STRING+" (quote string+) (quote ((om-load-inputfun (quote input-funbox) "add-input" "add-input" "out") (om-load-inputfun (quote input-funbox) "add-input" "add-input" nil) (om-load-inputfun (quote input-funbox) "add-input" "add-input" nil))) (om-make-point 264 173) (om-make-point 103 44) nil nil nil 1))) (when (fboundp (quote set-active)) (set-active box nil)) box) (let ((box (om-load-boxcall (quote genfun) "TMPFILE" (quote tmpfile) (quote ((om-load-inputfun (quote input-funbox) "file name" "PATH" ""))) (om-make-point 289 227) nil nil nil nil 1))) (when (fboundp (quote set-active)) (set-active box nil)) box) (let ((box (om-load-boxcall (quote bastype) "aux 2" (quote t) (quote nil) (om-make-point 498 245) (om-make-point 25 32) (quote t) "t" nil))) (when (fboundp (quote set-active)) (set-active box nil)) box) (let ((box (om-load-boxcall (quote genfun) "X-APPEND" (quote x-append) (quote ((om-load-inputfun (quote input-funbox) "first element" "L1?" nil) (om-load-inputfun (quote input-funbox) "second element" "L2?" nil))) (om-make-point 409 209) nil nil nil nil 1))) (when (fboundp (quote set-active)) (set-active box nil)) box) (let ((box (om-load-boxcall (quote bastype) "aux 3" (quote t) (quote nil) (om-make-point 411 170) (om-make-point 44 32) (quote freq) "freq" nil))) (when (fboundp (quote set-active)) (set-active box nil)) box) (let ((box (om-load-boxcall (quote lispfun) "LIST" (quote list) (quote ((om-load-inputfun (quote input-funbox) "add-input" "add-input" nil))) (om-make-point 426 275) nil nil nil nil 1))) (when (fboundp (quote set-active)) (set-active box nil)) box))) (quote ((2 0 0 0 nil 0) (8 0 0 1 nil 0) (12 0 0 2 nil 0) (9 0 0 3 nil 0) (0 0 3 0 nil 0) (1 0 4 0 nil 0) (6 0 7 0 nil 0) (4 0 7 1 nil 0) (5 0 7 2 nil 0) (7 0 8 0 nil 0) (11 0 10 0 nil 0) (1 0 10 1 nil 0) (10 0 12 0 nil 0))) 7.01 nil "" (om-make-point 200 200) (om-make-point 713 486)) (quote ((om-load-inputfun (quote input-funbox) "" "input" nil) (om-load-inputfun (quote input-funbox) "" "input 2" nil))) (om-make-point 2380/11 3004/11) (om-make-point 262 68) (list nil) "l" "multithreading"))) (when (fboundp (quote set-active)) (set-active box nil)) box) (let ((box (om-load-editor-box1 "SINGLE-ITEM-LIST" (quote single-item-list) (quote ((om-load-inputfun (quote input-funbox) "list of choices" "items" (list "uno" "dos" "tres")))) (om-make-point 22 146) (om-make-point 178 123) (let ((rep (om-make-dialog-item (quote single-item-list) (om-make-point 1 1) (om-make-point 154 107) "untitled" :range (quote ("spacialization-of-note.pd" "Space.pd" "Record.pd" "mk-senoide.pd" "mk-senoide-mp3.pd" "mk-note.pd" "Microtonal-Player.pd" "metronome.pd" "binaural.pd"))))) (setf (di-data rep) (quote ("spacialization-of-note.pd" "Space.pd" "Record.pd" "mk-senoide.pd" "mk-senoide-mp3.pd" "mk-note.pd" "Microtonal-Player.pd" "metronome.pd" "binaural.pd"))) (om-set-selected-item-index rep 3) rep) "x" nil (pairlis (quote (winpos winsize)) (list (om-make-point 10 40) (om-make-point 335 275))) nil nil nil nil))) (when (fboundp (quote set-active)) (set-active box nil)) box) (let ((box (om-load-boxcall (quote genfun) "PD-PATCHES-LIST" (quote pd-patches-list) (quote nil) (om-make-point 64 73) nil nil nil nil 1))) (when (fboundp (quote set-active)) (set-active box nil)) box))) (quote ((1 0 0 0 nil 0) (5 0 1 0 nil 0) (5 0 2 1 nil 0) (13 0 3 0 nil 0) (11 0 5 0 nil 0) (4 0 5 1 nil 0) (7 0 9 0 nil 0) (8 0 9 1 nil 0) (9 0 10 0 nil 0) (6 0 10 1 nil 0) (12 0 11 0 nil 0) (10 0 11 1 nil 0) (13 0 12 0 nil 0) (14 0 13 0 nil 0))) nil 7.01))
