#N canvas 255 52 1231 876 12;
#X obj 40 8 r freq;
#X obj 40 344 writesf~ 1;
#X obj 376 11 r outfile;
#X obj 376 47 t b b a b, f 20;
#X msg 513 78 \; pd dsp 1;
#X obj 467 138 else/format open %s;
#X obj 40 42 osc~;
#X obj 422 199 s write-audio;
#X obj 99 292 r write-audio;
#X text 75 42 Some audio generation;
#N canvas 0 0 450 300 audio-processing 0;
#X obj 35 20 inlet~;
#X obj 35 110 outlet~;
#X connect 0 0 1 0;
#X restore 40 230 pd audio-processing;
#N canvas 0 0 659 695 WAIT-TURN-OFF 0;
#X msg 121 267 stop;
#X obj 26 107 t b b, f 14;
#X msg 26 135 \; pd quit;
#X obj 26 81 delay 2000 1 msec;
#X obj 142 56 r time;
#X obj 26 25 inlet;
#X obj 121 295 outlet;
#X text 91 136 THIS ALWAYS NEED TO BE IN THE PATCH, f 18;
#X connect 0 0 6 0;
#X connect 1 0 2 0;
#X connect 1 1 0 0;
#X connect 3 0 1 0;
#X connect 4 0 3 1;
#X connect 5 0 3 0;
#X restore 252 124 pd WAIT-TURN-OFF;
#X text 292 142 This is a subpatch;
#X text 182 230 This is a subpatch;
#X connect 0 0 6 0;
#X connect 2 0 3 0;
#X connect 3 0 11 0;
#X connect 3 1 7 0;
#X connect 3 2 5 0;
#X connect 3 3 4 0;
#X connect 5 0 7 0;
#X connect 6 0 10 0;
#X connect 8 0 1 0;
#X connect 10 0 1 0;
#X connect 11 0 7 0;
