#N canvas 275 0 1920 980 12;
#X obj 402 241 r outfile;
#X obj 558 325 else/format open %s;
#X msg 402 328 start;
#X msg 320 327 stop;
#X msg 225 313 \; pd quit;
#X msg 714 319 \; pd dsp 1;
#X obj 11 442 writesf~ 2, f 29;
#X obj 11 185 readsf~, f 31;
#X obj 12 13 r infile;
#X obj 225 228 bng 25 250 50 0 empty empty empty 17 7 0 10 #fcfcfc
#000000 #000000;
#X obj 44 79 else/format open %s;
#X obj 12 38 t b a;
#X obj 402 287 t b a b, f 45;
#X obj 225 259 t b b, f 14;
#X msg 11 152 1;
#N canvas 0 0 714 463 AUDIO-MANIPULATION 0;
#X obj 52 20 inlet~;
#X obj 52 115 outlet~;
#X obj 141 41 r parameter1;
#X obj 241 41 r parameter2;
#X connect 0 0 1 0;
#X restore 11 261 pd AUDIO-MANIPULATION;
#X connect 0 0 12 0;
#X connect 1 0 6 0;
#X connect 2 0 6 0;
#X connect 3 0 6 0;
#X connect 7 0 15 0;
#X connect 7 1 9 0;
#X connect 8 0 11 0;
#X connect 9 0 13 0;
#X connect 10 0 7 0;
#X connect 11 0 14 0;
#X connect 11 1 10 0;
#X connect 12 0 2 0;
#X connect 12 1 1 0;
#X connect 12 2 5 0;
#X connect 13 0 4 0;
#X connect 13 1 3 0;
#X connect 14 0 7 0;
#X connect 15 0 6 0;
