#N canvas 445 86 840 629 12;
#X obj 40 8 r freq;
#X obj 40 263 writesf~ 1;
#X obj 198 7 r outfile;
#X obj 198 31 t b b a b;
#X msg 258 116 \; pd dsp 1;
#X obj 238 84 else/format open %s;
#X msg 218 214 start;
#X msg 158 208 stop;
#X obj 63 126 t b b, f 14;
#X msg 63 154 \; pd quit;
#X obj 40 42 osc~;
#X obj 63 100 delay 2000 1 msec;
#X obj 145 8 r time;
#X connect 0 0 10 0;
#X connect 2 0 3 0;
#X connect 3 0 11 0;
#X connect 3 1 6 0;
#X connect 3 2 5 0;
#X connect 3 3 4 0;
#X connect 5 0 1 0;
#X connect 6 0 1 0;
#X connect 7 0 1 0;
#X connect 8 0 9 0;
#X connect 8 1 7 0;
#X connect 10 0 1 0;
#X connect 11 0 8 0;
#X connect 12 0 11 1;
