#N canvas 108 76 1686 893 12;
#X obj 21 388 r msg;
#X msg 96 330 param_set 0 \$1;
#X msg 281 329 param_set 1 \$1;
#X text 555 327 Distance;
#X obj 96 304 else/rescale -180 180 0 1;
#X obj 281 305 else/rescale -90 90 0 1;
#X obj 449 304 else/rescale 0.1 40 0 1;
#X obj 96 364 send msg;
#X obj 281 368 send msg;
#X obj 449 374 send msg;
#X obj 99 208 hsl 128 15 -180 180 0 0 empty empty 0: Azimuth -2 -8
0 10 -262144 -1 -1 0 1;
#X obj 99 240 hsl 128 15 -90 90 0 0 empty empty 1: Elevation -2 -8
0 10 -262144 -1 -1 0 1;
#X obj 98 273 hsl 128 15 0.1 40 0 0 empty empty 2: Distance -2 -8
0 10 -262144 -1 -1 0 1;
#X msg 449 332 param_set 2 \$1;
#X obj 129 409 inlet~;
#X obj 9 633 outlet~;
#X obj 178 633 outlet~;
#X obj 311 21 loadbang;
#X obj 311 106 send msg;
#X obj 231 208 nbx 4 15 -1e+037 1e+037 0 0 empty empty empty 0 -8 0
10 -262144 -1 -1 0 256;
#X obj 231 240 nbx 4 15 -1e+037 1e+037 0 0 empty empty empty 0 -8 0
10 -262144 -1 -1 0 256;
#X text 276 204 º;
#X text 276 238 º;
#X obj 230 273 nbx 4 15 -1e+037 1e+037 0 0 empty empty empty 0 -8 0
10 -262144 -1 -1 0 256;
#X text 275 271 m;
#X obj 433 138 inlet;
#X obj 433 169 route azimuth elevation distance;
#X msg 311 50 open -e 'C:/Program Files/Common Files/VST3/3DTI_Spatialisation.vst3'
1, f 103;
#X obj 29 512 vstplugin/vstplugin~ 3DTI_Spatialisation.vst3 2 2;
#X msg 368 439 vis 1;
#X obj 369 556 route latency;
#X obj 369 593 print latency;
#X connect 0 0 28 0;
#X connect 1 0 7 0;
#X connect 2 0 8 0;
#X connect 4 0 1 0;
#X connect 5 0 2 0;
#X connect 6 0 13 0;
#X connect 10 0 4 0;
#X connect 10 0 19 0;
#X connect 11 0 5 0;
#X connect 11 0 20 0;
#X connect 12 0 6 0;
#X connect 12 0 23 0;
#X connect 13 0 9 0;
#X connect 14 0 28 0;
#X connect 14 0 28 1;
#X connect 17 0 27 0;
#X connect 25 0 26 0;
#X connect 26 0 10 0;
#X connect 26 1 11 0;
#X connect 26 2 12 0;
#X connect 28 0 15 0;
#X connect 28 1 16 0;
#X connect 28 2 30 0;
#X connect 29 0 28 0;
#X connect 30 0 31 0;
#X coords 0 -1 1 1 205 110 2 90 190;
