#N canvas 276 15 1176 795 12;
#X obj 116 91 nbx 3 14 -1e+037 1e+037 0 0 empty empty empty 0 -8 0
10 -228856 -1 -1 90.2362 256;
#X text 153 88 tempo;
#X obj 21 146 bng 15 250 50 0 empty empty empty 17 7 0 10 -262144 -1
-1;
#X obj 53 146 bng 15 250 50 0 empty empty empty 17 7 0 10 -262144 -1
-1;
#X msg 21 219 open down.wav \, start;
#X obj 21 253 readsf~;
#X obj 21 300 dac~;
#X obj 21 13 tgl 30 0 empty empty empty 17 7 0 10 -262144 -1 -1 1 1
;
#X obj 21 116 else/metronome;
#X msg 171 219 open up.wav \, start;
#X obj 171 249 readsf~;
#X obj 404 306 cyclone/coll;
#C restore;
#X obj 314 219 else/count;
#X obj 314 174 bng 15 250 50 0 empty empty empty 17 7 0 10 -262144
-1 -1;
#X obj 404 219 r measure;
#X obj 335 104 r measure-length;
#X msg 335 173 max \$1;
#X obj 336 11 loadbang;
#X msg 336 48 \; pd dsp 1;
#X obj 511 217 r infile;
#X obj 404 350 s metronome;
#X obj 54 23 r metronome;
#X obj 511 245 bng 15 250 50 0 empty empty empty 17 7 0 10 -262144
-1 -1;
#X msg 511 266 0;
#X obj 358 351 print;
#X msg 401 174 set 1;
#X obj 401 142 bng 15 250 50 0 empty empty empty 17 7 0 10 -262144
-1 -1;
#X obj 119 60 hsl 128 15 30 200 0 0 empty empty empty -2 -8 0 10 -262144
-1 -1 9100 1;
#X connect 0 0 8 1;
#X connect 2 0 4 0;
#X connect 2 0 12 0;
#X connect 3 0 9 0;
#X connect 4 0 5 0;
#X connect 5 0 6 0;
#X connect 5 0 6 1;
#X connect 7 0 8 0;
#X connect 8 0 2 0;
#X connect 8 1 3 0;
#X connect 9 0 10 0;
#X connect 10 0 6 0;
#X connect 10 0 6 1;
#X connect 11 0 20 0;
#X connect 11 0 24 0;
#X connect 12 0 11 0;
#X connect 13 0 12 0;
#X connect 14 0 11 0;
#X connect 15 0 16 0;
#X connect 15 0 26 0;
#X connect 16 0 12 0;
#X connect 17 0 18 0;
#X connect 19 0 22 0;
#X connect 21 0 8 0;
#X connect 22 0 23 0;
#X connect 23 0 11 0;
#X connect 25 0 12 0;
#X connect 26 0 25 0;
#X connect 27 0 0 0;
