#N canvas 503 60 838 886 12;
#X obj 25 46 r car;
#X obj 161 46 r cdr;
#X obj 161 211 cyclone/coll;
#C restore;
#X obj 161 245 t b a, f 10;
#X obj 161 362 dac~;
#X obj 161 308 readsf~;
#X msg 25 78 \$1 down.wav;
#X obj 228 272 else/format open %s;
#X msg 161 269 1;
#X msg 161 78 \$1 up.wav;
#X obj 250 73 metro 1;
#X obj 250 31 tgl 15 0 empty empty empty 17 7 0 10 #fcfcfc #000000
#000000 0 1;
#X obj 250 123 else/count;
#X msg 309 73 reset;
#X obj 228 308 print;
#X obj 377 6 loadbang;
#X msg 377 62 \; pd dsp 1;
#X obj 250 147 - 1;
#X obj 412 150 r last;
#X obj 412 181 + 250;
#X obj 379 225 sel;
#X msg 435 303 \; pd quit;
#X connect 0 0 6 0;
#X connect 1 0 9 0;
#X connect 2 0 3 0;
#X connect 3 0 8 0;
#X connect 3 1 7 0;
#X connect 5 0 4 0;
#X connect 5 0 4 1;
#X connect 6 0 2 0;
#X connect 7 0 5 0;
#X connect 7 0 14 0;
#X connect 8 0 5 0;
#X connect 9 0 2 0;
#X connect 10 0 12 0;
#X connect 11 0 10 0;
#X connect 12 0 17 0;
#X connect 13 0 12 0;
#X connect 15 0 16 0;
#X connect 15 0 11 0;
#X connect 17 0 2 0;
#X connect 17 0 20 0;
#X connect 18 0 19 0;
#X connect 19 0 20 1;
#X connect 20 0 21 0;
