#N canvas 136 43 1619 873 12;
#X obj 27 29 r freq;
#X obj 462 8 r outfile;
#X obj 27 272 writesf~ 1;
#X obj 665 181 else/format open %s;
#X msg 597 181 start;
#X msg 353 204 stop;
#X obj 232 111 t b b b, f 35;
#X msg 232 200 \; pd quit;
#X obj 462 54 t b b b a b, f 39;
#X msg 732 84 \; pd dsp 1;
#X obj 353 170 delay 200 1 msec;
#X obj 232 170 delay 250 1 msec;
#X obj 232 85 delay 2000 1 msec;
#X obj 27 227 else/sfont~;
#X msg 185 325 open C:/Users/Neimog/OneDrive_usp.br/Documents/Music_Files/SoundFonts/AKAI_Steinway.sf2
;
#X msg 27 75 set \$1 50;
#X msg 102 75 set \$1 0;
#X msg 102 149 60 0;
#X obj 185 296 loadbang;
#X msg 27 128 60 90;
#X connect 0 0 15 0;
#X connect 0 0 16 0;
#X connect 1 0 8 0;
#X connect 3 0 2 0;
#X connect 4 0 2 0;
#X connect 5 0 2 0;
#X connect 6 0 11 0;
#X connect 6 1 10 0;
#X connect 6 2 17 0;
#X connect 8 0 12 0;
#X connect 8 1 19 0;
#X connect 8 2 4 0;
#X connect 8 3 3 0;
#X connect 8 4 9 0;
#X connect 10 0 5 0;
#X connect 11 0 7 0;
#X connect 12 0 6 0;
#X connect 13 0 2 0;
#X connect 14 0 13 0;
#X connect 15 0 19 0;
#X connect 16 0 17 0;
#X connect 17 0 13 0;
#X connect 18 0 14 0;
#X connect 19 0 13 0;
