#N canvas 217 5 1619 873 12;
#X obj 27 306 *~;
#X obj 456 234 line~, f 11;
#X msg 493 197 0.1 100;
#X obj 27 29 r freq;
#X obj 426 61 r outfile;
#X obj 629 234 else/format open %s;
#X msg 561 234 start;
#X msg 317 231 stop;
#X obj 196 164 t b b b, f 35;
#X msg 196 227 \; pd quit;
#X obj 426 107 t b b b a b, f 39;
#X msg 696 137 \; pd dsp 1;
#X msg 438 197 0 60, f 6;
#X obj 317 197 delay 200 1 msec;
#X obj 196 197 delay 250 1 msec;
#X obj 196 34 r duration;
#X obj 26 389 unauthorized/mp3write~;
#X obj 27 120 osc~;
#X obj 196 134 delay;
#X msg 196 84 tempo \$1 msec;
#X connect 0 0 16 0;
#X connect 0 0 16 1;
#X connect 1 0 0 1;
#X connect 2 0 1 0;
#X connect 3 0 17 0;
#X connect 4 0 10 0;
#X connect 5 0 16 0;
#X connect 6 0 16 0;
#X connect 7 0 16 0;
#X connect 8 0 14 0;
#X connect 8 1 13 0;
#X connect 8 2 12 0;
#X connect 10 0 18 0;
#X connect 10 1 2 0;
#X connect 10 2 6 0;
#X connect 10 3 5 0;
#X connect 10 4 11 0;
#X connect 12 0 1 0;
#X connect 13 0 7 0;
#X connect 14 0 9 0;
#X connect 15 0 19 0;
#X connect 17 0 0 0;
#X connect 18 0 8 0;
#X connect 19 0 18 0;
