#N canvas 217 5 1618 873 12;
#X obj 24 405 *~;
#X obj 1003 213 line~, f 11;
#X msg 1040 175 0.1 100;
#X obj 28 174 osc~ 1000;
#X obj 27 29 r freq;
#X obj 973 40 r outfile;
#X obj 1176 213 else/format open %s;
#X msg 1108 213 start;
#X msg 864 210 stop;
#X obj 743 143 t b b b, f 35;
#X msg 743 206 \; pd quit;
#X obj 973 86 t b b b a b, f 39;
#X msg 1243 116 \; pd dsp 1;
#X msg 984 176 0 60, f 6;
#X obj 859 46 r duration;
#X obj 743 113 delay 1000 1 msec;
#X obj 113 173 osc~ 1000;
#X obj 28 219 *~ 0.5;
#X obj 103 219 *~ 0.3;
#X obj 213 176 osc~ 1000;
#X obj 203 222 *~ 0.2;
#X obj 288 177 osc~ 1000;
#X obj 278 223 *~ 0.2;
#X msg 383 395 transp \$1;
#X obj 455 106 r midi;
#X obj 383 352 r cents;
#X obj 1042 300 bng 15 250 50 0 empty empty empty 17 7 0 10 -262144
-1 -1;
#X msg 591 191 set \$1 0;
#X msg 631 378;
#X obj 790 386 bng 15 250 50 0 empty empty empty 17 7 0 10 -262144
-1 -1;
#X obj 952 408 loadbang;
#X msg 665 533 open C:/Users/Neimog/OneDrive_usp.br/Documents/Music_Files/SoundFonts/AKAI_Steinway.sf2
;
#X msg 418 147 60;
#X msg 530 367 60 100;
#X msg 455 189 set \$1 100;
#X obj 153 115 * 2;
#X obj 235 118 * 3;
#X obj 310 119 * 4;
#X obj 549 621 else/sfont~ else/sf/Theremin.sf2;
#X obj 141 804 writesf~ 2;
#X obj 864 176 delay 1000 1 msec;
#X obj 743 176 delay 1250 1 msec;
#X connect 0 0 39 0;
#X connect 1 0 0 1;
#X connect 2 0 1 0;
#X connect 3 0 17 0;
#X connect 4 0 3 0;
#X connect 4 0 35 0;
#X connect 4 0 36 0;
#X connect 4 0 37 0;
#X connect 5 0 11 0;
#X connect 6 0 39 0;
#X connect 7 0 26 0;
#X connect 7 0 39 0;
#X connect 8 0 39 0;
#X connect 9 0 41 0;
#X connect 9 1 29 0;
#X connect 9 1 40 0;
#X connect 9 2 13 0;
#X connect 11 0 15 0;
#X connect 11 1 2 0;
#X connect 11 2 7 0;
#X connect 11 3 6 0;
#X connect 11 4 12 0;
#X connect 13 0 1 0;
#X connect 14 0 15 1;
#X connect 15 0 9 0;
#X connect 16 0 18 0;
#X connect 17 0 0 0;
#X connect 18 0 0 0;
#X connect 19 0 20 0;
#X connect 20 0 0 0;
#X connect 21 0 22 0;
#X connect 22 0 0 0;
#X connect 23 0 38 0;
#X connect 24 0 34 0;
#X connect 24 0 27 0;
#X connect 25 0 23 0;
#X connect 26 0 33 0;
#X connect 27 0 28 0;
#X connect 28 0 38 0;
#X connect 29 0 28 0;
#X connect 30 0 31 0;
#X connect 31 0 38 0;
#X connect 32 0 34 0;
#X connect 33 0 38 0;
#X connect 34 0 33 0;
#X connect 35 0 16 0;
#X connect 36 0 19 0;
#X connect 37 0 21 0;
#X connect 38 0 39 0;
#X connect 38 1 39 1;
#X connect 40 0 8 0;
#X connect 41 0 10 0;
