#N canvas 445 86 1022 607 12;
#X obj 40 8 r freq;
#X obj 40 42 osc~ 1000;
#X obj 39 263 writesf~ 1;
#X obj 319 11 r outfile;
#X obj 319 35 t b b a b;
#X msg 379 65 \; pd dsp 1;
#X obj 359 109 else/format open %s;
#X msg 339 136 start;
#X obj 171 62 delay 2000 1 msec;
#X msg 203 114 stop;
#X obj 171 88 t b b;
#X msg 171 152 \; pd quit;
#X obj 40 168 *~ 0.3;
#X connect 0 0 1 0;
#X connect 1 0 12 0;
#X connect 3 0 4 0;
#X connect 4 0 8 0;
#X connect 4 1 7 0;
#X connect 4 2 6 0;
#X connect 4 3 5 0;
#X connect 6 0 2 0;
#X connect 7 0 2 0;
#X connect 8 0 10 0;
#X connect 9 0 2 0;
#X connect 10 0 11 0;
#X connect 10 1 9 0;
#X connect 12 0 2 0;
