#N canvas 234 188 1640 707 12;
#X obj 30 303 *~;
#X obj 27 107 osc~ 1000;
#X obj 27 29 r freq;
#X obj 436 23 r outfile;
#X obj 675 196 else/format open %s;
#X msg 630 196 start;
#X msg 444 340 stop;
#X msg 405 371 \; pd quit;
#X obj 436 69 t b b b a b, f 39;
#X msg 706 99 \; pd dsp 1;
#X obj 476 99 r duration;
#X obj 360 131 delay 1000 1 msec;
#X obj 112 106 osc~ 1000;
#X obj 182 106 osc~ 1000;
#X obj 257 107 osc~ 1000;
#X obj 30 491 writesf~ 1;
#X obj 317 312 send~ line;
#X obj 116 266 receive~ line;
#X obj 630 409 s writesf;
#X obj 68 303 r writesf;
#X obj 317 278 cyclone/line~;
#X obj 405 314 t b b, f 6;
#X obj 503 297 send~ line;
#X obj 503 263 cyclone/line~;
#X obj 380 160 loadbang;
#X msg 421 224 0;
#X obj 375 186 t b b;
#X msg 388 224 1;
#X msg 156 31 300;
#X obj 27 152 *~ 0.6;
#X msg 317 242 0 60, f 6;
#X obj 112 82 * 3;
#X obj 182 82 * 5;
#X obj 257 83 * 7;
#X obj 181 152 *~ 0.05;
#X obj 256 152 *~ 0.0025;
#X msg 503 177 1 460;
#X obj 111 152 *~ 0.04;
#X connect 0 0 15 0;
#X connect 1 0 29 0;
#X connect 2 0 1 0;
#X connect 2 0 31 0;
#X connect 2 0 32 0;
#X connect 2 0 33 0;
#X connect 3 0 8 0;
#X connect 4 0 18 0;
#X connect 5 0 18 0;
#X connect 6 0 18 0;
#X connect 8 0 11 0;
#X connect 8 1 36 0;
#X connect 8 2 5 0;
#X connect 8 3 4 0;
#X connect 8 4 9 0;
#X connect 10 0 11 1;
#X connect 11 0 30 0;
#X connect 12 0 37 0;
#X connect 13 0 34 0;
#X connect 14 0 35 0;
#X connect 17 0 0 1;
#X connect 19 0 15 0;
#X connect 20 0 16 0;
#X connect 20 1 21 0;
#X connect 21 0 7 0;
#X connect 21 1 6 0;
#X connect 23 0 22 0;
#X connect 24 0 26 0;
#X connect 25 0 23 0;
#X connect 25 0 0 1;
#X connect 26 0 25 0;
#X connect 26 1 27 0;
#X connect 27 0 20 0;
#X connect 28 0 1 0;
#X connect 29 0 0 0;
#X connect 30 0 20 0;
#X connect 31 0 12 0;
#X connect 32 0 13 0;
#X connect 33 0 14 0;
#X connect 34 0 0 0;
#X connect 35 0 0 0;
#X connect 36 0 23 0;
#X connect 37 0 0 0;
