#N canvas 445 86 1022 607 12;
#X obj 40 8 r freq;
#X obj 40 263 writesf~ 1;
#X obj 319 11 r outfile;
#X obj 319 35 t b b a b;
#X msg 379 65 \; pd dsp 1;
#X obj 359 109 else/format open %s;
#X msg 339 136 start;
#X msg 203 114 stop;
#X obj 171 88 t b b;
#X msg 171 152 \; pd quit;
#X obj 40 42 osc~;
#X obj 171 62 delay 2000 1 msec;
#X connect 0 0 10 0;
#X connect 2 0 3 0;
#X connect 3 0 11 0;
#X connect 3 1 6 0;
#X connect 3 2 5 0;
#X connect 3 3 4 0;
#X connect 5 0 1 0;
#X connect 6 0 1 0;
#X connect 7 0 1 0;
#X connect 8 0 9 0;
#X connect 8 1 7 0;
#X connect 10 0 1 0;
#X connect 11 0 8 0;
