#N canvas 653 206 1104 616 12;
#X obj 698 211 r outfile;
#X obj 901 384 else/format open %s;
#X msg 833 384 start;
#X msg 566 304 stop;
#X obj 445 211 t b b b, f 35;
#X msg 445 300 \; pd quit;
#X obj 698 257 t b b b a b, f 39;
#X msg 967 287 \; pd dsp 1;
#X obj 566 270 delay 200 1 msec;
#X obj 445 270 delay 250 1 msec;
#X obj 29 320 binaural;
#X obj 30 560 writesf~ 2, f 29;
#X obj 28 153 readsf~, f 60;
#X obj 28 18 r infile;
#X obj 445 180 bng 25 250 50 0 empty empty empty 17 7 0 10 -262144
-1 -1;
#X obj 77 81 else/format open %s;
#X obj 62 210 r azimuth;
#X msg 62 240 azimuth \$1;
#X obj 143 209 r elevation;
#X msg 143 239 elevation \$1;
#X msg 240 239 distance \$1;
#X obj 240 209 r distance;
#X obj 28 49 t b a;
#X msg 28 82 1;
#X connect 0 0 6 0;
#X connect 1 0 11 0;
#X connect 2 0 11 0;
#X connect 3 0 11 0;
#X connect 4 0 9 0;
#X connect 4 1 8 0;
#X connect 6 2 2 0;
#X connect 6 3 1 0;
#X connect 6 4 7 0;
#X connect 8 0 3 0;
#X connect 9 0 5 0;
#X connect 10 0 11 0;
#X connect 10 1 11 1;
#X connect 12 0 10 0;
#X connect 12 1 14 0;
#X connect 13 0 22 0;
#X connect 14 0 4 0;
#X connect 15 0 12 0;
#X connect 16 0 17 0;
#X connect 17 0 10 1;
#X connect 18 0 19 0;
#X connect 19 0 10 1;
#X connect 20 0 10 1;
#X connect 21 0 20 0;
#X connect 22 0 23 0;
#X connect 22 1 15 0;
#X connect 23 0 12 0;
