#N canvas 347 131 1405 681 12;
#X msg 439 316 open -e C:/Users/Neimog/OneDrive_usp.br/Documents/Music_Files/VST2-3/IEM/StereoEncoder.vst3
1;
#X msg 15 86 1;
#X obj 117 168 readsf~ 1, f 12;
#X obj 113 441 vstplugin/vstplugin~ 2 16;
#X f 32;
#X obj 113 563 vstplugin/vstplugin~ 16 2;
#X f 30;
#X obj 129 361 r msg;
#X obj 117 43 r infile;
#X obj 439 370 s msg;
#X obj 439 149 loadbang;
#X obj 575 285 s decode-vst;
#X msg 575 222 open -e C:/Users/Neimog/OneDrive_usp.br/Documents/Music_Files/VST2-3/IEM/BinauralDecoder.vst3
1;
#X obj 24 441 r decode-vst;
#X msg 485 244 \; pd dsp 1;
#N canvas 837 581 901 414 loaded 0;
#X obj 26 7 inlet;
#X obj 26 40 route latency, f 53;
#X obj 26 81 s 1_loaded;
#X connect 0 0 1 0;
#X connect 1 0 2 0;
#X restore 334 564 pd loaded;
#X obj 15 7 r 1_loaded;
#X obj 15 40 bng 15 250 50 0 empty empty empty 17 7 0 10 #fcfcfc #000000
#000000;
#X obj 117 79 else/format set open %s;
#X obj 439 175 t b b b;
#X obj 15 59 t b b;
#X obj 112 641 dac~, f 15;
#X msg 29 357 vis \$1;
#X obj 29 317 tgl 25 0 empty empty empty 17 7 0 10 #fcfcfc #000000
#000000 0 1;
#X obj 220 232 spigot;
#X obj 220 260 s 1_loaded;
#X obj 259 172 r loop;
#X obj 342 205 tgl 15 0 empty empty empty 17 7 0 10 #fcfcfc #000000
#000000 0 1;
#N canvas 519 56 806 556 OSC 0;
#X obj 15 466 s msg;
#X obj 266 468 s msg;
#X text 198 400 elevation;
#X obj 490 472 s msg;
#X obj 15 166 oscparse;
#X obj 15 132 netreceive -u -b 3000;
#X obj 15 205 route list;
#X obj 15 438 else/format param_set 6 %f;
#X obj 267 434 else/format param_set 7 %f;
#X obj 490 437 else/format param_set 8 %f;
#X obj 15 402 else/rescale -180 180 1 0;
#X obj 267 400 else/rescale -180 180 1 0;
#X obj 490 403 else/rescale -180 180 1 0;
#X obj 15 238 route encoder;
#X obj 114 329 unpack f f f;
#X obj 20 30 loadbang;
#X msg 19 73 listen 3000;
#X obj 200 278 print;
#X connect 4 0 6 0;
#X connect 5 0 4 0;
#X connect 6 0 13 0;
#X connect 7 0 0 0;
#X connect 8 0 1 0;
#X connect 9 0 3 0;
#X connect 10 0 7 0;
#X connect 11 0 8 0;
#X connect 12 0 9 0;
#X connect 13 0 14 0;
#X connect 13 0 17 0;
#X connect 14 0 10 0;
#X connect 14 1 11 0;
#X connect 14 2 12 0;
#X connect 15 0 16 0;
#X connect 16 0 5 0;
#X restore 383 17 pd OSC;
#X obj 225 641 writesf~ 2;
#X msg 117 110, f 117;
#X text 350 438 You need to Download the vstplugin object and the IEM
VST plugins.;
#X text 1015 218 You need to replace (just the pathname) it with the
BinauralDecoder pathname;
#X text 876 312 You need to replace (just the pathname) it with the
StereoEncoder pathname.;
#X text 438 14 You need to download the Else Library.;
#X connect 0 0 7 0;
#X connect 1 0 2 0;
#X connect 2 0 3 0;
#X connect 2 0 3 1;
#X connect 2 1 22 0;
#X connect 3 0 4 0;
#X connect 3 1 4 1;
#X connect 3 2 4 2;
#X connect 3 3 4 3;
#X connect 3 4 4 4;
#X connect 3 5 4 5;
#X connect 3 6 4 6;
#X connect 3 7 4 7;
#X connect 3 8 4 8;
#X connect 3 9 4 9;
#X connect 3 10 4 10;
#X connect 3 11 4 11;
#X connect 3 12 4 12;
#X connect 3 13 4 13;
#X connect 3 14 4 14;
#X connect 3 15 4 15;
#X connect 3 16 13 0;
#X connect 4 0 19 0;
#X connect 4 0 27 0;
#X connect 4 1 19 1;
#X connect 4 1 27 1;
#X connect 5 0 3 0;
#X connect 6 0 16 0;
#X connect 8 0 17 0;
#X connect 10 0 9 0;
#X connect 11 0 4 0;
#X connect 14 0 15 0;
#X connect 15 0 18 0;
#X connect 16 0 28 0;
#X connect 17 0 0 0;
#X connect 17 1 10 0;
#X connect 17 2 12 0;
#X connect 18 0 1 0;
#X connect 18 1 28 0;
#X connect 20 0 3 0;
#X connect 21 0 20 0;
#X connect 22 0 23 0;
#X connect 24 0 22 1;
#X connect 25 0 22 1;
#X connect 28 0 2 0;
