#N canvas 654 151 829 557 12;
#X obj 375 303 r outfile;
#X obj 531 387 else/format open %s;
#X msg 221 364 start;
#X msg 321 352 stop;
#X msg 226 313 \; pd quit;
#X msg 687 381 \; pd dsp 1;
#X obj 12 493 writesf~ 2, f 29;
#X obj 12 197 readsf~, f 31;
#X obj 12 13 r infile;
#X obj 226 228 bng 25 250 50 0 empty empty empty 17 7 0 10 #fcfcfc
#000000 #000000;
#X obj 44 79 else/format open %s;
#X obj 12 38 t b a;
#X obj 375 349 t b a b, f 45;
#X obj 226 259 t b b, f 14;
#X text 87 9 NEED EARPLUG~: To download it \, go to Help -> Find Externals
Search for earplug~. Download it and restart PD.;
#X text 184 84 NEED EARPLUG~: To download it \, go to Help -> Find
Externals Search for earplug~. Download it and restart PD.;
#X obj 134 220 r cents;
#X obj 134 250 * 0.01;
#X obj 11 390 earplug~, f 14;
#X obj 58 321 r azimuth;
#X obj 106 351 r elevation;
#X obj 11 279 ceammc/soundtouch~;
#X obj 12 128 t b b, f 19;
#X msg 12 152 1;
#X obj 12 106 delay 100 1 msec;
#X connect 0 0 12 0;
#X connect 1 0 6 0;
#X connect 2 0 6 0;
#X connect 3 0 6 0;
#X connect 7 0 21 0;
#X connect 7 1 9 0;
#X connect 8 0 11 0;
#X connect 9 0 13 0;
#X connect 10 0 7 0;
#X connect 11 0 24 0;
#X connect 11 1 10 0;
#X connect 12 1 1 0;
#X connect 12 2 5 0;
#X connect 13 0 4 0;
#X connect 13 1 3 0;
#X connect 16 0 17 0;
#X connect 17 0 21 1;
#X connect 18 0 6 0;
#X connect 18 1 6 1;
#X connect 19 0 18 1;
#X connect 20 0 18 2;
#X connect 21 0 18 0;
#X connect 22 0 23 0;
#X connect 22 1 2 0;
#X connect 23 0 7 0;
#X connect 24 0 22 0;
