#N canvas 804 213 735 457 12;
#X obj 176 149 readsf~, f 23;
#X obj 176 49 t b a, f 7;
#X msg 176 89 1;
#X obj 176 18 r infile;
#X obj 222 89 else/format open %s;
#X obj 175 178 sigmund~;
#X obj 175 207 mtof;
#X obj 175 239 ddsp~;
#X obj 175 341 writesf~ 1;
#X obj 409 179 r outfile;
#X obj 478 238 else/format open %s;
#X msg 409 235 start;
#X obj 334 187 t b b;
#X msg 333 245 stop;
#X obj 409 207 t b a b, f 34;
#X msg 253 230 \; pd quit;
#X obj 27 114 r model;
#X obj 27 149 else/format load %s;
#X msg 644 239 \; pd dsp 1;
#X connect 0 0 5 0;
#X connect 0 1 12 0;
#X connect 1 0 2 0;
#X connect 1 1 4 0;
#X connect 2 0 0 0;
#X connect 3 0 1 0;
#X connect 4 0 0 0;
#X connect 5 0 6 0;
#X connect 5 1 7 1;
#X connect 6 0 7 0;
#X connect 7 0 8 0;
#X connect 9 0 14 0;
#X connect 10 0 8 0;
#X connect 11 0 8 0;
#X connect 12 0 15 0;
#X connect 12 1 13 0;
#X connect 13 0 8 0;
#X connect 14 0 11 0;
#X connect 14 1 10 0;
#X connect 14 2 18 0;
#X connect 16 0 17 0;
#X connect 17 0 7 0;
