#N canvas 607 97 1145 446 12;
#X obj 12 396 writesf~ 1;
#X obj 12 9 r infile;
#X obj 12 41 t b a, f 14;
#X obj 107 75 else/format open %s;
#X msg 12 79 1;
#X obj 12 114 readsf~, f 43;
#X obj 310 144 bng 25 250 50 0 empty empty empty 17 7 0 10 -262144
-1 -1;
#X obj 451 38 r outfile;
#X obj 451 140 t b b b a b, f 31;
#X msg 664 248 \; pd dsp 1;
#X obj 610 287 else/format open %s;
#X msg 557 287 start;
#X obj 310 224 t b b b;
#X obj 323 263 delay 200 1 msec;
#X msg 323 291 stop;
#X msg 201 290 \; pd quit;
#X obj 201 263 delay 250 1 msec;
#X obj 371 161;
#X obj 13 218 nn~ rave_berimbau_v1_rt.ts decode;
#X obj 13 184 nn~ rave_berimbau_v1_rt.ts encode;
#X connect 1 0 2 0;
#X connect 2 0 4 0;
#X connect 2 1 3 0;
#X connect 3 0 5 0;
#X connect 4 0 5 0;
#X connect 5 0 19 0;
#X connect 5 1 6 0;
#X connect 6 0 12 0;
#X connect 7 0 8 0;
#X connect 8 2 11 0;
#X connect 8 3 10 0;
#X connect 8 4 9 0;
#X connect 10 0 0 0;
#X connect 11 0 0 0;
#X connect 12 0 16 0;
#X connect 12 1 13 0;
#X connect 13 0 14 0;
#X connect 14 0 0 0;
#X connect 16 0 15 0;
#X connect 18 0 0 0;
#X connect 19 0 18 0;
#X connect 19 1 18 1;
#X connect 19 2 18 2;
#X connect 19 3 18 3;
#X connect 19 4 18 4;
#X connect 19 5 18 5;
#X connect 19 6 18 6;
#X connect 19 7 18 7;
